# xmcd CD database file
#
# Track frame offsets:
#	150
#	14080
#	27102
#	39702
#	52355
#	65560
#	79337
#	91929
#	105097
#	117997
#	131970
#	144502
#
# Disc length: 2136 seconds
#
# Revision: 0
# Processed by: cddbd v1.5.2PL0 Copyright (c) Steve Scherf et al.
# Submitted via: CDex 1.70beta2
#
DISCID=ab08560c
DTITLE=Sidock,, Cindy - Cdn. - OVM - ON - Paradise Ballroom
DYEAR=1999
DGENRE=Country
TTITLE0=Paradise ballroom
TTITLE1=Kust An Old Picture
TTITLE2=Change My Mind
TTITLE3=Live In This Town
TTITLE4=Moon Talkin'
TTITLE5=Satan's Jewel Crown
TTITLE6=Grandma's Knee
TTITLE7=Somewhere Between
TTITLE8=Hey Gorgeous
TTITLE9=Close To the Heart
TTITLE10=Rockin' Wanda
TTITLE11=You Know Where I'll Be
EXTD=YEAR: 1999
EXTT0=
EXTT1=
EXTT2=
EXTT3=
EXTT4=
EXTT5=
EXTT6=
EXTT7=
EXTT8=
EXTT9=
EXTT10=
EXTT11=
PLAYORDER=
